# xmcd CD database file
#
# Track frame offsets:
#	150
#	11331
#	26708
#	46109
#	64926
#	77016
#	96451
#	112028
#	123164
#	136737
#	147206
#	159537
#
# Disc length: 2323 seconds
#
# Revision: 0
# Processed by: cddbd v1.5.2PL0 Copyright (c) Steve Scherf et al.
# Submitted via: CDex 1.51
#
DISCID=9909110c
DTITLE=James Hunter - The Hard Way
DYEAR=1900
DGENRE=Blues
TTITLE0=The Hard Way
TTITLE1=Tell Her
TTITLE2=Don't Do Me No Favours
TTITLE3=Carina
TTITLE4=She's Got A Way
TTITLE5=Til The End
TTITLE6=Hand It Over
TTITLE7=Jacqueline
TTITLE8=Class Act
TTITLE9=Ain't Goin' Nowhere
TTITLE10=Believe Me Baby
TTITLE11=Strange But True
EXTD=
EXTT0=
EXTT1=
EXTT2=
EXTT3=
EXTT4=
EXTT5=
EXTT6=
EXTT7=
EXTT8=
EXTT9=
EXTT10=
EXTT11=
PLAYORDER=
